<?xml version="1.0" standalone="no"?>
<!DOCTYPE svg PUBLIC "-//W3C//DTD SVG 20010904//EN"
 "http://www.w3.org/TR/2001/REC-SVG-20010904/DTD/svg10.dtd">
<svg version="1.0" xmlns="http://www.w3.org/2000/svg"
 width="678.000000pt" height="1280.000000pt" viewBox="0 0 678.000000 1280.000000"
 preserveAspectRatio="xMidYMid meet">
<metadata>
Created by potrace 1.15, written by Peter Selinger 2001-2017
</metadata>
<g transform="translate(0.000000,1280.000000) scale(0.100000,-0.100000)"
fill="#000000" stroke="none">
<path d="M850 12784 c-390 -104 -704 -595 -751 -1171 -6 -74 -25 -1762 -45
-3998 -19 -2128 -37 -4230 -42 -4670 -4 -440 -7 -984 -7 -1210 1 -387 2 -416
23 -513 66 -301 207 -523 392 -617 89 -45 1380 -585 1422 -595 24 -5 69 -10
101 -10 49 0 1995 402 3872 799 265 56 319 75 420 142 334 224 564 765 542
1279 -16 381 -154 689 -373 833 -43 29 -1366 588 -1447 612 -106 32 -136 27
-1146 -185 -525 -110 -956 -198 -958 -197 -2 2 14 1818 34 4035 30 3237 35
4053 25 4140 -35 314 -170 583 -355 705 -57 38 -1407 610 -1478 626 -62 15
-164 12 -229 -5z"/>
</g>
</svg>
